<?xml version="1.0" encoding="iso-8859-1"?>
<svg version="1.1" id="Layer_1" xmlns="http://www.w3.org/2000/svg" xmlns:xlink="http://www.w3.org/1999/xlink" x="0px" y="0px"
	 viewBox="0 0 512 512" style="enable-background:new 0 0 512 512;" xml:space="preserve">
<rect x="187.317" y="387.122" style="fill:#78B9EB;" width="137.366" height="74.927"/>
<rect y="31.22" style="fill:#0052B4;" width="512" height="374.634"/>
<rect x="256" y="31.22" style="fill:#003778;" width="256" height="374.634"/>
<rect x="143.61" y="443.317" style="fill:#AED5F3;" width="224.78" height="37.463"/>
<rect x="256" y="443.317" style="fill:#93C7EF;" width="112.39" height="37.463"/>
<path style="fill:#FFFFFF;" d="M412.098,199.805H253.793c-8.482-35.754-40.655-62.439-78.964-62.439
	c-44.758,0-81.171,36.413-81.171,81.171s36.413,81.171,81.171,81.171c38.31,0,70.482-26.686,78.964-62.439h52.158v31.219h37.463
	v-31.219h12.488v43.707h37.463v-43.707h18.732V199.805z M174.829,262.244c-24.1,0-43.707-19.607-43.707-43.707
	s19.607-43.707,43.707-43.707s43.707,19.607,43.707,43.707S198.929,262.244,174.829,262.244z"/>
</svg>
