<svg id="Capa_1" enable-background="new 0 0 512.113 512.113" height="512" viewBox="0 0 512.113 512.113" width="512" xmlns="http://www.w3.org/2000/svg"><g><path d="m461.113 340.293c-5.533 0-47.815-6-150.583-6-102.336 0-259.158 0-265.53 0-24.854 0-45 20.153-45 45 0 24.848 20.146 45 45 45h265.53c73.171 0 85.503-6 150.583-6 24.854 0 45-14.152 45-39 0-24.847-20.146-39-45-39z" fill="#aae071"/><path d="m512.113 379.293c0-24.847-20.146-45-45-45-5.533 0-53.815 0-156.583 0v90h156.583c24.854 0 45-20.152 45-45z" fill="#73ca7a"/><path d="m461.113 250.293c-5.533 0-47.815-6-150.583-6-102.336 0-259.158 0-265.53 0-24.854 0-45 20.153-45 45 0 24.848 20.146 45 45 45h265.53c73.171 0 85.503-6 150.583-6 24.854 0 45-14.152 45-39 0-24.847-20.146-39-45-39z" fill="#f4d844"/><path d="m512.113 289.293c0-24.847-20.146-45-45-45-5.533 0-53.815 0-156.583 0v90h156.583c24.854 0 45-20.152 45-45z" fill="#ecbd2c"/><path d="m461.113 160.293c-5.533 0-47.815-6-150.583-6-102.336 0-259.158 0-265.53 0-24.854 0-45 20.153-45 45 0 24.848 20.146 45 45 45h265.53c73.171 0 85.503-6 150.583-6 24.854 0 45-14.152 45-39 0-24.847-20.146-39-45-39z" fill="#e58f22"/><path d="m512.113 199.293c0-24.847-20.146-45-45-45-5.533 0-53.815 0-156.583 0v90h156.583c24.854 0 45-20.152 45-45z" fill="#df6426"/><path d="m260.96 72.82c-1.636 0-3.252.084-4.847.24-.011 0-.021-.003-.032-.002-25.052 2.459-44.691 23.645-44.691 49.332v76.902h-98.526c0-39.75 0-70.315 0-76.902 0-10.791 8.779-19.57 19.57-19.57s19.57 8.779 19.57 19.57v31.902h30v-31.902c0-27.333-22.237-49.57-49.571-49.57-27.333 0-49.569 22.237-49.569 49.57v316.902h30c0-2.561 0-13.55 0-30h98.526v30h30c0-14.408 0-295.244 0-316.902 0-9.098 6.241-16.767 14.667-18.948v.025c1.57-.408 3.207-.647 4.903-.647 10.791 0 19.57 8.779 19.57 19.57v31.902h5 20 5v-31.902c0-27.332-22.237-49.57-49.57-49.57zm-49.57 156.473v30h-98.526c0-10.174 0-20.23 0-30zm0 60v30h-98.526c0-9.844 0-19.898 0-30zm-98.527 90c0-9.335 0-19.417 0-30h98.526v30z" fill="#4c607e"/></g></svg>