<svg enable-background="new 0 0 24 24" height="512" viewBox="0 0 24 24" width="512" xmlns="http://www.w3.org/2000/svg"><path d="m18.92 7.53v1.59c-.46-.08-.94-.12-1.42-.12-1.55 0-3.02.42-4.27 1.16-.47.26-.9.57-1.3.92-1.79 1.56-2.93 3.86-2.93 6.42 0 .87.13 1.71.37 2.5h-7.29c-.55 0-1-.45-1-1v-11.47z" fill="#ffb74d"/><path d="m13.23 10.16c-.47.26-.9.57-1.3.92h-4.36c-.45 0-.81-.36-.81-.81 0-.449.36-.81.81-.81h4.86c.41 0 .75.3.8.7z" fill="#795548"/><path d="m19.5 7.527h-19c-.276 0-.5-.225-.5-.5v-3.284h20v3.284c0 .276-.224.5-.5.5z" fill="#ffcc80"/><path d="m20 3.743-2.973-3.743h-14.054l-2.973 3.743z" fill="#ffa726"/><path d="m10 7.53h-8.92v11.47c0 .55.45 1 1 1h7.29c-.24-.79-.37-1.63-.37-2.5 0-1.444.363-2.805 1-3.997v-2.423h-2.43c-.45 0-.81-.36-.81-.81 0-.449.36-.81.81-.81h2.43z" fill="#de9f43"/><path d="m10 9.46h-2.43c-.45 0-.81.36-.81.81s.36.81.81.81h2.43z" fill="#694a3f"/><path d="m10 3.743h-10v3.284c0 .275.224.5.5.5h9.5z" fill="#deb26f"/><path d="m10 0h-7.027l-2.973 3.743h10z" fill="#de9121"/><path d="m17.5 24c-3.584 0-6.5-2.916-6.5-6.5s2.916-6.5 6.5-6.5 6.5 2.916 6.5 6.5-2.916 6.5-6.5 6.5z" fill="#2196f3"/><path d="m17.5 20c-.414 0-.75-.336-.75-.75v-.241c0-.968.484-1.894 1.327-2.542.265-.203.423-.534.423-.884 0-.598-.449-1.084-1-1.084s-1 .486-1 1.084c0 .414-.336.75-.75.75s-.75-.336-.75-.75c0-1.424 1.122-2.583 2.5-2.583s2.5 1.159 2.5 2.584c0 .813-.377 1.589-1.009 2.074-.277.212-.741.67-.741 1.352v.241c0 .413-.336.749-.75.749z" fill="#fff"/><path d="m17.5 22c-.2 0-.39-.08-.53-.22s-.22-.33-.22-.53.08-.39.22-.53c.21-.21.54-.28.82-.16l.24.16c.14.14.22.33.22.53s-.08.39-.22.53l-.24.16c-.1.04-.19.06-.29.06z" fill="#fff"/><path d="m17.5 11c-3.584 0-6.5 2.916-6.5 6.5s2.916 6.5 6.5 6.5v-2c-.2 0-.39-.08-.53-.22s-.22-.33-.22-.53.08-.39.22-.53.334-.218.53-.218v-.502c-.414 0-.75-.336-.75-.75v-.241c0-.719.267-1.415.75-1.991v-2.518c-.551 0-1 .486-1 1.084 0 .414-.336.75-.75.75s-.75-.336-.75-.75c0-1.425 1.122-2.584 2.5-2.584z" fill="#1d83d4"/><g fill="#dedede"><path d="m17.5 17.019c-.483.576-.75 1.272-.75 1.991v.241c0 .414.336.75.75.75zm0-4.019c-1.378 0-2.5 1.159-2.5 2.584 0 .414.336.75.75.75s.75-.336.75-.75c0-.598.449-1.084 1-1.084z"/><path d="m17.5 20.501c-.197.001-.39.078-.53.218s-.22.33-.22.53.08.39.22.53.33.221.53.221z"/></g></svg>